<svg width="168" height="48" viewBox="0 0 168 48" fill="none" xmlns="http://www.w3.org/2000/svg">
<path d="M167.067 42.4644C167.067 45.0223 164.928 47.0943 162.283 47.0943H5.72386C3.07979 47.0943 0.933594 45.0223 0.933594 42.4644V5.5417C0.933594 2.98493 3.07979 0.90567 5.72386 0.90567H162.282C164.928 0.90567 167.066 2.98493 167.066 5.5417L167.067 42.4644Z" fill="#3C5C6D"/>
<path d="M161.778 0.961502C164.659 0.961502 167.003 3.222 167.003 6V42C167.003 44.778 164.659 47.0385 161.778 47.0385H6.22222C3.34133 47.0385 0.997111 44.778 0.997111 42V6C0.997111 3.222 3.34133 0.961502 6.22222 0.961502H161.778ZM161.778 3.8147e-06H6.22222C2.80156 3.8147e-06 0 2.7015 0 6V42C0 45.2985 2.80156 48 6.22222 48H161.778C165.198 48 168 45.2985 168 42V6C168 2.7015 165.198 3.8147e-06 161.778 3.8147e-06Z" fill="#A6A6A6"/>
<path d="M37.4928 23.7408C37.4567 19.8732 40.7768 17.9916 40.9287 17.904C39.0483 15.2604 36.1338 14.8992 35.1096 14.8704C32.6618 14.622 30.2874 16.2828 29.0405 16.2828C27.7687 16.2828 25.8485 14.8944 23.779 14.9352C21.1159 14.9748 18.6245 16.4616 17.2581 18.7704C14.4382 23.478 16.5413 30.396 19.243 34.2012C20.5944 36.0648 22.1736 38.1456 24.2407 38.0724C26.2629 37.992 27.0183 36.8292 29.4586 36.8292C31.8766 36.8292 32.5859 38.0724 34.694 38.0256C36.8643 37.992 38.2307 36.1536 39.5349 34.2732C41.0967 32.1372 41.7239 30.0336 41.7488 29.9256C41.6977 29.9088 37.5338 28.3764 37.4928 23.7408Z" fill="white"/>
<path d="M33.5105 12.3672C34.5982 11.0556 35.3424 9.27119 35.1358 7.46039C33.5616 7.52759 31.5928 8.51039 30.4592 9.79319C29.4561 10.9236 28.5601 12.7764 28.7916 14.5188C30.56 14.646 32.3756 13.6584 33.5105 12.3672Z" fill="white"/>
<path d="M61.0402 12.0108C61.0402 13.4232 60.6009 14.4864 59.7236 15.2004C58.9109 15.8592 57.7561 16.1892 56.2603 16.1892C55.5186 16.1892 54.8839 16.158 54.3525 16.0956V8.37838C55.0457 8.27038 55.7924 8.21518 56.5988 8.21518C58.0237 8.21518 59.0976 8.51398 59.8219 9.11158C60.6333 9.78718 61.0402 10.7532 61.0402 12.0108ZM59.6651 12.0456C59.6651 11.13 59.4137 10.428 58.9109 9.93838C58.4082 9.44998 57.674 9.20518 56.707 9.20518C56.2964 9.20518 55.9467 9.23158 55.6567 9.28678V15.1536C55.8173 15.1776 56.1109 15.1884 56.5378 15.1884C57.5358 15.1884 58.3061 14.9208 58.8487 14.3856C59.3913 13.8504 59.6651 13.0704 59.6651 12.0456Z" fill="white"/>
<path d="M68.3315 13.2444C68.3315 14.1144 68.0739 14.8272 67.5587 15.3864C67.0187 15.9612 66.3031 16.248 65.4096 16.248C64.5484 16.248 63.8627 15.9732 63.3513 15.4212C62.8411 14.8704 62.5859 14.1756 62.5859 13.338C62.5859 12.462 62.8485 11.7432 63.3762 11.1852C63.9038 10.6272 64.6131 10.3476 65.5067 10.3476C66.3678 10.3476 67.0597 10.6224 67.5836 11.1732C68.0814 11.7084 68.3315 12.3996 68.3315 13.2444ZM66.9788 13.2852C66.9788 12.7632 66.8619 12.3156 66.6291 11.9424C66.3554 11.4912 65.9659 11.2656 65.4594 11.2656C64.9355 11.2656 64.5372 11.4912 64.2635 11.9424C64.0295 12.3156 63.9138 12.7704 63.9138 13.308C63.9138 13.83 64.0307 14.2776 64.2635 14.6508C64.5459 15.102 64.9392 15.3276 65.4469 15.3276C65.9447 15.3276 66.3355 15.0984 66.6167 14.6388C66.8581 14.2584 66.9788 13.8072 66.9788 13.2852Z" fill="white"/>
<path d="M78.1079 10.4628L76.2724 16.1196H75.0777L74.3174 13.6632C74.1245 13.05 73.9677 12.4404 73.8457 11.8356H73.8221C73.7088 12.4572 73.552 13.0656 73.3504 13.6632L72.5428 16.1196H71.3344L69.6084 10.4628H70.9487L71.6119 13.152C71.7725 13.788 71.9044 14.394 72.0102 14.9676H72.0338C72.1309 14.4948 72.2914 13.8924 72.5179 13.164L73.3504 10.464H74.4132L75.2109 13.1064C75.4038 13.7508 75.5606 14.3712 75.6813 14.9688H75.7174C75.8057 14.3868 75.9389 13.7664 76.1156 13.1064L76.8274 10.464H78.1079V10.4628Z" fill="white"/>
<path d="M84.8686 16.1196H83.5644V12.8796C83.5644 11.8812 83.1712 11.382 82.3822 11.382C81.9952 11.382 81.6828 11.5188 81.4402 11.7936C81.2 12.0684 81.078 12.3924 81.078 12.7632V16.1184H79.7738V12.0792C79.7738 11.5824 79.7577 11.0436 79.7266 10.4604H80.8727L80.9337 11.3448H80.9698C81.1216 11.07 81.3481 10.8432 81.6455 10.662C81.9989 10.4508 82.3946 10.344 82.8277 10.344C83.3753 10.344 83.8307 10.5144 84.1929 10.8564C84.6433 11.2752 84.8686 11.9004 84.8686 12.7308V16.1196Z" fill="white"/>
<path d="M88.465 16.1196H87.1621V7.86719H88.465V16.1196Z" fill="white"/>
<path d="M96.1431 13.2444C96.1431 14.1144 95.8855 14.8272 95.3703 15.3864C94.8302 15.9612 94.1134 16.248 93.2211 16.248C92.3587 16.248 91.673 15.9732 91.1628 15.4212C90.6526 14.8704 90.3975 14.1756 90.3975 13.338C90.3975 12.462 90.66 11.7432 91.1877 11.1852C91.7153 10.6272 92.4247 10.3476 93.3169 10.3476C94.1793 10.3476 94.87 10.6224 95.3951 11.1732C95.8929 11.7084 96.1431 12.3996 96.1431 13.2444ZM94.7891 13.2852C94.7891 12.7632 94.6721 12.3156 94.4394 11.9424C94.1669 11.4912 93.7761 11.2656 93.2709 11.2656C92.7457 11.2656 92.3475 11.4912 92.075 11.9424C91.841 12.3156 91.7253 12.7704 91.7253 13.308C91.7253 13.83 91.8423 14.2776 92.075 14.6508C92.3575 15.102 92.7507 15.3276 93.2584 15.3276C93.7562 15.3276 94.1457 15.0984 94.427 14.6388C94.6696 14.2584 94.7891 13.8072 94.7891 13.2852Z" fill="white"/>
<path d="M102.456 16.1196H101.285L101.188 15.468H101.151C100.751 15.9876 100.18 16.248 99.4379 16.248C98.8841 16.248 98.4361 16.0764 98.0989 15.7356C97.7927 15.426 97.6396 15.0408 97.6396 14.5836C97.6396 13.8924 97.9383 13.3656 98.5394 13.0008C99.1392 12.636 99.9829 12.4572 101.069 12.4656V12.36C101.069 11.6148 100.664 11.2428 99.851 11.2428C99.2724 11.2428 98.7621 11.3832 98.3216 11.6616L98.0565 10.836C98.6016 10.5108 99.2748 10.3476 100.069 10.3476C101.602 10.3476 102.371 11.1276 102.371 12.6876V14.7708C102.371 15.336 102.4 15.786 102.456 16.1196ZM101.102 14.1756V13.3032C99.6631 13.2792 98.9438 13.6596 98.9438 14.4432C98.9438 14.7384 99.026 14.9592 99.194 15.1068C99.362 15.2544 99.576 15.3276 99.8311 15.3276C100.117 15.3276 100.385 15.24 100.629 15.066C100.874 14.8908 101.025 14.6688 101.081 14.3964C101.094 14.3352 101.102 14.2608 101.102 14.1756Z" fill="white"/>
<path d="M109.866 16.1196H108.708L108.647 15.2112H108.611C108.242 15.9024 107.612 16.248 106.727 16.248C106.02 16.248 105.432 15.9804 104.965 15.4452C104.498 14.91 104.266 14.2152 104.266 13.362C104.266 12.4464 104.518 11.7048 105.026 11.1384C105.518 10.6104 106.12 10.3464 106.837 10.3464C107.624 10.3464 108.176 10.602 108.489 11.1144H108.514V7.86719H109.82V14.5956C109.82 15.1464 109.835 15.654 109.866 16.1196ZM108.514 13.734V12.7908C108.514 12.6276 108.502 12.4956 108.478 12.3948C108.405 12.0924 108.247 11.838 108.006 11.6328C107.764 11.4276 107.471 11.3244 107.134 11.3244C106.647 11.3244 106.267 11.5104 105.987 11.8836C105.709 12.2568 105.569 12.7332 105.569 13.3152C105.569 13.8744 105.702 14.328 105.969 14.6772C106.252 15.0492 106.633 15.2352 107.109 15.2352C107.537 15.2352 107.879 15.0804 108.14 14.7696C108.391 14.4828 108.514 14.1372 108.514 13.734Z" fill="white"/>
<path d="M121.02 13.2444C121.02 14.1144 120.762 14.8272 120.247 15.3864C119.707 15.9612 118.993 16.248 118.098 16.248C117.238 16.248 116.552 15.9732 116.04 15.4212C115.53 14.8704 115.274 14.1756 115.274 13.338C115.274 12.462 115.537 11.7432 116.065 11.1852C116.592 10.6272 117.302 10.3476 118.196 10.3476C119.056 10.3476 119.749 10.6224 120.272 11.1732C120.77 11.7084 121.02 12.3996 121.02 13.2444ZM119.669 13.2852C119.669 12.7632 119.552 12.3156 119.319 11.9424C119.044 11.4912 118.656 11.2656 118.148 11.2656C117.625 11.2656 117.227 11.4912 116.952 11.9424C116.718 12.3156 116.602 12.7704 116.602 13.308C116.602 13.83 116.719 14.2776 116.952 14.6508C117.234 15.102 117.628 15.3276 118.135 15.3276C118.633 15.3276 119.025 15.0984 119.306 14.6388C119.547 14.2584 119.669 13.8072 119.669 13.2852Z" fill="white"/>
<path d="M128.032 16.1196H126.729V12.8796C126.729 11.8812 126.336 11.382 125.546 11.382C125.159 11.382 124.847 11.5188 124.605 11.7936C124.364 12.0684 124.243 12.3924 124.243 12.7632V16.1184H122.938V12.0792C122.938 11.5824 122.923 11.0436 122.892 10.4604H124.036L124.097 11.3448H124.134C124.287 11.07 124.513 10.8432 124.809 10.662C125.164 10.4508 125.558 10.344 125.993 10.344C126.539 10.344 126.995 10.5144 127.357 10.8564C127.808 11.2752 128.032 11.9004 128.032 12.7308V16.1196Z" fill="white"/>
<path d="M136.809 11.4048H135.373V14.1528C135.373 14.8512 135.628 15.2004 136.133 15.2004C136.367 15.2004 136.561 15.1812 136.715 15.1416L136.748 16.0956C136.491 16.1892 136.152 16.236 135.735 16.236C135.22 16.236 134.819 16.0848 134.529 15.7824C134.238 15.48 134.094 14.9712 134.094 14.2572V11.4048H133.236V10.4628H134.094V9.42599L135.372 9.05399V10.4616H136.808V11.4048H136.809Z" fill="white"/>
<path d="M143.714 16.1196H142.408V12.9036C142.408 11.8896 142.015 11.382 141.228 11.382C140.623 11.382 140.21 11.676 139.983 12.264C139.944 12.3876 139.922 12.5388 139.922 12.7164V16.1184H138.619V7.86719H139.922V11.2764H139.947C140.358 10.656 140.946 10.3464 141.709 10.3464C142.249 10.3464 142.696 10.5168 143.051 10.8588C143.492 11.2848 143.714 11.9184 143.714 12.756V16.1196Z" fill="white"/>
<path d="M150.836 13.0236C150.836 13.2492 150.818 13.4388 150.787 13.5936H146.876C146.893 14.1528 147.08 14.5788 147.442 14.874C147.773 15.138 148.2 15.27 148.723 15.27C149.301 15.27 149.829 15.1812 150.304 15.0024L150.508 15.876C149.952 16.1088 149.297 16.2252 148.54 16.2252C147.631 16.2252 146.916 15.9672 146.398 15.4512C145.878 14.9352 145.62 14.2428 145.62 13.374C145.62 12.5208 145.86 11.8104 146.344 11.244C146.85 10.6392 147.533 10.3368 148.395 10.3368C149.239 10.3368 149.88 10.6392 150.313 11.244C150.663 11.724 150.836 12.318 150.836 13.0236ZM149.591 12.6984C149.601 12.3252 149.515 12.0036 149.339 11.7324C149.112 11.3832 148.767 11.208 148.301 11.208C147.875 11.208 147.528 11.3784 147.263 11.7204C147.046 11.9928 146.918 12.318 146.876 12.6984H149.591Z" fill="white"/>
<path d="M66.7587 37.8048H63.9325L62.3845 33.114H57.0035L55.5288 37.8048H52.7773L58.1085 21.8352H61.4013L66.7587 37.8048ZM61.9178 31.146L60.5178 26.976C60.3697 26.55 60.0922 25.5468 59.6828 23.9676H59.633C59.47 24.6468 59.2074 25.65 58.8465 26.976L57.4714 31.146H61.9178Z" fill="white"/>
<path d="M80.4687 31.9056C80.4687 33.864 79.9199 35.412 78.8223 36.5484C77.8391 37.56 76.6183 38.0652 75.1611 38.0652C73.5881 38.0652 72.4582 37.5204 71.77 36.4308H71.7202V42.4968H69.0671V30.0804C69.0671 28.8492 69.0335 27.5856 68.9688 26.2896H71.3021L71.4502 28.1148H71.4999C72.3847 26.7396 73.7275 26.0532 75.5295 26.0532C76.9382 26.0532 78.1142 26.5896 79.055 27.6636C79.9983 28.7388 80.4687 30.1524 80.4687 31.9056ZM77.7657 31.9992C77.7657 30.8784 77.5044 29.9544 76.9792 29.2272C76.4055 28.4688 75.6352 28.0896 74.6695 28.0896C74.015 28.0896 73.4201 28.3008 72.8887 28.7172C72.3561 29.1372 72.0077 29.6856 71.8447 30.3648C71.7625 30.6816 71.7215 30.9408 71.7215 31.1448V33.0648C71.7215 33.9024 71.9878 34.6092 72.5204 35.1864C73.053 35.7636 73.7449 36.0516 74.5961 36.0516C75.5954 36.0516 76.3732 35.6796 76.9295 34.938C77.487 34.1952 77.7657 33.216 77.7657 31.9992Z" fill="white"/>
<path d="M94.2037 31.9056C94.2037 33.864 93.6549 35.412 92.5561 36.5484C91.5742 37.56 90.3534 38.0652 88.8962 38.0652C87.3232 38.0652 86.1933 37.5204 85.5063 36.4308H85.4565V42.4968H82.8034V30.0804C82.8034 28.8492 82.7698 27.5856 82.7051 26.2896H85.0384L85.1865 28.1148H85.2363C86.1198 26.7396 87.4626 26.0532 89.2658 26.0532C90.6733 26.0532 91.8493 26.5896 92.7925 27.6636C93.7321 28.7388 94.2037 30.1524 94.2037 31.9056ZM91.5008 31.9992C91.5008 30.8784 91.2382 29.9544 90.7131 29.2272C90.1394 28.4688 89.3716 28.0896 88.4046 28.0896C87.7488 28.0896 87.1552 28.3008 86.6226 28.7172C86.09 29.1372 85.7428 29.6856 85.5797 30.3648C85.4989 30.6816 85.4565 30.9408 85.4565 31.1448V33.0648C85.4565 33.9024 85.7229 34.6092 86.253 35.1864C86.7856 35.7624 87.4775 36.0516 88.3312 36.0516C89.3305 36.0516 90.1083 35.6796 90.6645 34.938C91.2221 34.1952 91.5008 33.216 91.5008 31.9992Z" fill="white"/>
<path d="M109.56 33.3264C109.56 34.6848 109.071 35.79 108.089 36.6432C107.01 37.5756 105.508 38.0412 103.578 38.0412C101.796 38.0412 100.368 37.71 99.2861 37.0464L99.9009 34.914C101.066 35.5932 102.344 35.934 103.736 35.934C104.736 35.934 105.513 35.7156 106.072 35.2812C106.628 34.8468 106.906 34.2636 106.906 33.5364C106.906 32.8884 106.677 32.3424 106.218 31.8996C105.761 31.4568 104.998 31.0452 103.933 30.6648C101.033 29.622 99.5848 28.0944 99.5848 26.0856C99.5848 24.7728 100.093 23.6964 101.109 22.8588C102.122 22.02 103.474 21.6012 105.164 21.6012C106.671 21.6012 107.923 21.8544 108.922 22.3596L108.259 24.4452C107.325 23.9556 106.27 23.7108 105.089 23.7108C104.156 23.7108 103.426 23.9328 102.904 24.3744C102.462 24.7692 102.24 25.2504 102.24 25.8204C102.24 26.4516 102.493 26.9736 103.001 27.384C103.443 27.7632 104.245 28.1736 105.41 28.6164C106.835 29.1696 107.882 29.8164 108.555 30.558C109.226 31.2972 109.56 32.2224 109.56 33.3264Z" fill="white"/>
<path d="M118.332 28.2096H115.408V33.8004C115.408 35.2224 115.923 35.9328 116.956 35.9328C117.43 35.9328 117.823 35.8932 118.134 35.814L118.208 37.7568C117.685 37.9452 116.997 38.04 116.144 38.04C115.097 38.04 114.278 37.7316 113.687 37.116C113.098 36.4992 112.802 35.4648 112.802 34.0116V28.2072H111.06V26.2872H112.802V24.1788L115.408 23.4204V26.2872H118.332V28.2096Z" fill="white"/>
<path d="M131.527 31.9524C131.527 33.7224 131.001 35.1756 129.954 36.312C128.855 37.482 127.396 38.0652 125.578 38.0652C123.826 38.0652 122.431 37.5048 121.391 36.384C120.35 35.2632 119.83 33.8484 119.83 32.1432C119.83 30.3588 120.365 28.8972 121.439 27.7608C122.511 26.6232 123.957 26.0544 125.775 26.0544C127.527 26.0544 128.937 26.6148 130.001 27.7368C131.019 28.8252 131.527 30.2304 131.527 31.9524ZM128.774 32.0352C128.774 30.9732 128.539 30.0624 128.062 29.3028C127.506 28.3836 126.711 27.9252 125.68 27.9252C124.614 27.9252 123.804 28.3848 123.247 29.3028C122.771 30.0636 122.536 30.9888 122.536 32.0832C122.536 33.1452 122.771 34.056 123.247 34.8144C123.821 35.7336 124.622 36.192 125.657 36.192C126.67 36.192 127.465 35.724 128.038 34.7904C128.527 34.0164 128.774 33.096 128.774 32.0352Z" fill="white"/>
<path d="M140.151 28.5396C139.888 28.4928 139.608 28.4688 139.314 28.4688C138.381 28.4688 137.659 28.8084 137.152 29.4888C136.71 30.0888 136.488 30.8472 136.488 31.7628V37.8048H133.836L133.861 29.916C133.861 28.5888 133.828 27.3804 133.762 26.2908H136.073L136.17 28.494H136.243C136.523 27.7368 136.965 27.1272 137.57 26.67C138.161 26.2584 138.799 26.0532 139.487 26.0532C139.733 26.0532 139.954 26.07 140.151 26.1V28.5396Z" fill="white"/>
<path d="M152.017 31.5024C152.017 31.9608 151.986 32.3472 151.92 32.6628H143.96C143.991 33.8004 144.376 34.6704 145.115 35.2704C145.786 35.8068 146.653 36.0756 147.719 36.0756C148.897 36.0756 149.972 35.8944 150.939 35.5308L151.355 37.3068C150.225 37.782 148.891 38.0184 147.351 38.0184C145.5 38.0184 144.046 37.4928 142.988 36.4428C141.933 35.3928 141.404 33.9828 141.404 32.214C141.404 30.4776 141.896 29.0316 142.88 27.8784C143.911 26.6472 145.303 26.0316 147.055 26.0316C148.776 26.0316 150.079 26.6472 150.964 27.8784C151.665 28.8564 152.017 30.066 152.017 31.5024ZM149.487 30.8388C149.504 30.0804 149.331 29.4252 148.972 28.872C148.513 28.1604 147.807 27.8052 146.857 27.8052C145.99 27.8052 145.284 28.152 144.746 28.848C144.304 29.4012 144.041 30.0648 143.96 30.8376H149.487V30.8388Z" fill="white"/>
</svg>
