<svg width="188" height="101" viewBox="0 0 188 101" fill="none" xmlns="http://www.w3.org/2000/svg">
<g filter="url(#filter0_d_122_5161)">
<circle cx="144" cy="40" r="40" fill="white"/>
</g>
<path opacity="0.4" d="M157.334 42.6666V46.6666C157.334 48.88 155.547 50.6666 153.334 50.6666H152C152 49.2 150.8 48 149.334 48C147.867 48 146.667 49.2 146.667 50.6666H141.334C141.334 49.2 140.134 48 138.667 48C137.2 48 136 49.2 136 50.6666H134.667C132.454 50.6666 130.667 48.88 130.667 46.6666V42.6666H145.334C146.8 42.6666 148 41.4666 148 40V30.6666H150.454C151.414 30.6666 152.294 31.1866 152.774 32.0133L155.054 36H153.334C152.6 36 152 36.6 152 37.3333V41.3333C152 42.0666 152.6 42.6666 153.334 42.6666H157.334Z" fill="#A027FF"/>
<path d="M138.667 53.3333C140.139 53.3333 141.333 52.1394 141.333 50.6667C141.333 49.1939 140.139 48 138.667 48C137.194 48 136 49.1939 136 50.6667C136 52.1394 137.194 53.3333 138.667 53.3333Z" fill="#A027FF"/>
<path d="M149.334 53.3333C150.806 53.3333 152 52.1394 152 50.6667C152 49.1939 150.806 48 149.334 48C147.861 48 146.667 49.1939 146.667 50.6667C146.667 52.1394 147.861 53.3333 149.334 53.3333Z" fill="#A027FF"/>
<path d="M157.333 40.7067V42.6667H153.333C152.6 42.6667 152 42.0667 152 41.3333V37.3333C152 36.6 152.6 36 153.333 36H155.053L156.987 39.3866C157.213 39.7866 157.333 40.24 157.333 40.7067Z" fill="#A027FF"/>
<path d="M146.666 26.6666H135.999C133.399 26.6666 131.239 28.5333 130.773 31H137.333C137.879 31 138.333 31.4533 138.333 32C138.333 32.5466 137.879 33 137.333 33H130.666V35H134.666C135.213 35 135.666 35.4533 135.666 36C135.666 36.5466 135.213 37 134.666 37H130.666V39H131.999C132.546 39 132.999 39.4533 132.999 40C132.999 40.5466 132.546 41 131.999 41H130.666V42.6666H145.333C146.799 42.6666 147.999 41.4666 147.999 40V28C147.999 27.2666 147.399 26.6666 146.666 26.6666Z" fill="#A027FF"/>
<path d="M130.773 31H129.333C128.786 31 128.333 31.4533 128.333 32C128.333 32.5467 128.786 33 129.333 33H130.666V32C130.666 31.6533 130.706 31.32 130.773 31Z" fill="#A027FF"/>
<path d="M129.333 35C128.786 35 128.333 35.4533 128.333 36C128.333 36.5467 128.786 37 129.333 37H130.666V35H129.333Z" fill="#A027FF"/>
<path d="M129.333 39C128.786 39 128.333 39.4533 128.333 40C128.333 40.5467 128.786 41 129.333 41H130.666V39H129.333Z" fill="#A027FF"/>
<defs>
<filter id="filter0_d_122_5161" x="100" y="0" width="88" height="88" filterUnits="userSpaceOnUse" color-interpolation-filters="sRGB">
<feFlood flood-opacity="0" result="BackgroundImageFix"/>
<feColorMatrix in="SourceAlpha" type="matrix" values="0 0 0 0 0 0 0 0 0 0 0 0 0 0 0 0 0 0 127 0" result="hardAlpha"/>
<feOffset dy="4"/>
<feGaussianBlur stdDeviation="2"/>
<feComposite in2="hardAlpha" operator="out"/>
<feColorMatrix type="matrix" values="0 0 0 0 0 0 0 0 0 0 0 0 0 0 0 0 0 0 0.25 0"/>
<feBlend mode="normal" in2="BackgroundImageFix" result="effect1_dropShadow_122_5161"/>
<feBlend mode="normal" in="SourceGraphic" in2="effect1_dropShadow_122_5161" result="shape"/>
</filter>
</defs>
</svg>
