<svg width="184" height="101" viewBox="0 0 184 101" fill="none" xmlns="http://www.w3.org/2000/svg">
<circle cx="144" cy="40" r="40" fill="#B4B4B4"/>
<g opacity="0">
</g>
<path opacity="0.4" d="M157.333 42.6666V46.6666C157.333 48.88 155.547 50.6666 153.333 50.6666H152C152 49.2 150.8 48 149.333 48C147.867 48 146.667 49.2 146.667 50.6666H141.333C141.333 49.2 140.133 48 138.667 48C137.2 48 136 49.2 136 50.6666H134.667C132.453 50.6666 130.667 48.88 130.667 46.6666V42.6666H145.333C146.8 42.6666 148 41.4666 148 40V30.6666H150.453C151.413 30.6666 152.293 31.1866 152.773 32.0133L155.053 36H153.333C152.6 36 152 36.6 152 37.3333V41.3333C152 42.0666 152.6 42.6666 153.333 42.6666H157.333Z" fill="#A027FF"/>
<path d="M138.667 53.3333C140.139 53.3333 141.333 52.1394 141.333 50.6667C141.333 49.1939 140.139 48 138.667 48C137.194 48 136 49.1939 136 50.6667C136 52.1394 137.194 53.3333 138.667 53.3333Z" fill="#A027FF"/>
<path d="M149.333 53.3333C150.806 53.3333 152 52.1394 152 50.6667C152 49.1939 150.806 48 149.333 48C147.86 48 146.667 49.1939 146.667 50.6667C146.667 52.1394 147.86 53.3333 149.333 53.3333Z" fill="#A027FF"/>
<path d="M157.333 40.7067V42.6667H153.333C152.6 42.6667 152 42.0667 152 41.3333V37.3333C152 36.6 152.6 36 153.333 36H155.053L156.987 39.3866C157.213 39.7866 157.333 40.24 157.333 40.7067Z" fill="#A027FF"/>
<path d="M146.667 26.6666H136C133.4 26.6666 131.24 28.5333 130.774 31H137.334C137.88 31 138.334 31.4533 138.334 32C138.334 32.5466 137.88 33 137.334 33H130.667V35H134.667C135.214 35 135.667 35.4533 135.667 36C135.667 36.5466 135.214 37 134.667 37H130.667V39H132C132.547 39 133 39.4533 133 40C133 40.5466 132.547 41 132 41H130.667V42.6666H145.334C146.8 42.6666 148 41.4666 148 40V28C148 27.2666 147.4 26.6666 146.667 26.6666Z" fill="#A027FF"/>
<path d="M130.774 31H129.333C128.787 31 128.333 31.4533 128.333 32C128.333 32.5467 128.787 33 129.333 33H130.667V32C130.667 31.6533 130.707 31.32 130.774 31Z" fill="#A027FF"/>
<path d="M129.333 35C128.787 35 128.333 35.4533 128.333 36C128.333 36.5467 128.787 37 129.333 37H130.667V35H129.333Z" fill="#A027FF"/>
<path d="M129.333 39C128.787 39 128.333 39.4533 128.333 40C128.333 40.5467 128.787 41 129.333 41H130.667V39H129.333Z" fill="#A027FF"/>
</svg>
