<svg width="168" height="48" viewBox="0 0 168 48" fill="none" xmlns="http://www.w3.org/2000/svg">
<path d="M161.778 48H6.22222C2.80156 48 0 45.2985 0 42V6C0 2.7015 2.80156 -1.90735e-06 6.22222 -1.90735e-06H161.778C165.198 -1.90735e-06 168 2.7015 168 6V42C168 45.2985 165.198 48 161.778 48Z" fill="#3C5C6D"/>
<path d="M161.778 0.961497C164.659 0.961497 167.003 3.222 167.003 6V42C167.003 44.778 164.659 47.0385 161.778 47.0385H6.22222C3.34133 47.0385 0.997111 44.778 0.997111 42V6C0.997111 3.222 3.34133 0.961497 6.22222 0.961497H161.778ZM161.778 -1.90735e-06H6.22222C2.80156 -1.90735e-06 0 2.7015 0 6V42C0 45.2985 2.80156 48 6.22222 48H161.778C165.198 48 168 45.2985 168 42V6C168 2.7015 165.198 -1.90735e-06 161.778 -1.90735e-06Z" fill="#A6A6A6"/>
<path d="M12.0527 9.04646C11.6871 9.41546 11.4756 9.98996 11.4756 10.734V37.272C11.4756 38.016 11.6871 38.5905 12.0527 38.9595L12.1429 39.0405L27.5647 24.1755V23.8245L12.1429 8.95946L12.0527 9.04646Z" fill="white"/>
<path d="M34.5665 29.133L29.4316 24.1755V23.8245L34.5728 18.867L34.6879 18.9315L40.7763 22.272C42.5139 23.22 42.5139 24.78 40.7763 25.734L34.6879 29.0685L34.5665 29.133Z" fill="white"/>
<path d="M33.7545 29.9916L28.4983 24.9231L12.9863 39.8826C13.5634 40.4676 14.5045 40.5381 15.5748 39.9531L33.7545 29.9916Z" fill="white"/>
<path d="M33.7545 18.0084L15.5748 8.04691C14.5045 7.46791 13.5634 7.5384 12.9863 8.1234L28.4983 23.0769L33.7545 18.0084Z" fill="white"/>
<path d="M59.0085 12.2925C59.0085 13.2945 58.6974 14.097 58.0845 14.6955C57.3798 15.405 56.4621 15.762 55.3374 15.762C54.2625 15.762 53.3447 15.399 52.5918 14.6835C51.8374 13.9575 51.4609 13.0665 51.4609 12C51.4609 10.9335 51.8374 10.0425 52.5918 9.32254C53.3447 8.60104 54.2625 8.23804 55.3374 8.23804C55.8725 8.23804 56.3827 8.34454 56.8696 8.54254C57.3549 8.74204 57.75 9.01204 58.0363 9.34504L57.386 9.97804C56.8867 9.40954 56.2069 9.12904 55.3374 9.12904C54.5534 9.12904 53.8736 9.39304 53.2965 9.92554C52.7256 10.4595 52.4394 11.151 52.4394 12C52.4394 12.849 52.7256 13.5465 53.2965 14.0805C53.8736 14.607 54.5534 14.877 55.3374 14.877C56.1696 14.877 56.8696 14.607 57.4218 14.0745C57.7858 13.722 57.9927 13.236 58.0472 12.615H55.3374V11.748H58.9525C58.996 11.9355 59.0085 12.117 59.0085 12.2925Z" fill="white" stroke="white" stroke-width="0.16" stroke-miterlimit="10"/>
<path d="M64.7438 9.28651H61.3481V11.5665H64.4094V12.4335H61.3481V14.7135H64.7438V15.597H60.3867V8.40302H64.7438V9.28651Z" fill="white" stroke="white" stroke-width="0.16" stroke-miterlimit="10"/>
<path d="M68.7913 15.597H67.83V9.28651H65.7471V8.40302H70.8757V9.28651H68.7913V15.597Z" fill="white" stroke="white" stroke-width="0.16" stroke-miterlimit="10"/>
<path d="M74.5869 15.597V8.40302H75.5467V15.597H74.5869Z" fill="white" stroke="white" stroke-width="0.16" stroke-miterlimit="10"/>
<path d="M79.802 15.597H78.8485V9.28651H76.7578V8.40302H81.8927V9.28651H79.802V15.597Z" fill="white" stroke="white" stroke-width="0.16" stroke-miterlimit="10"/>
<path d="M91.6017 14.6715C90.8659 15.399 89.9544 15.762 88.867 15.762C87.7735 15.762 86.8619 15.399 86.1261 14.6715C85.3919 13.9455 85.0264 13.0545 85.0264 12C85.0264 10.9455 85.3919 10.0545 86.1261 9.32854C86.8619 8.60104 87.7735 8.23804 88.867 8.23804C89.9481 8.23804 90.8597 8.60104 91.5955 9.33454C92.3359 10.0665 92.7015 10.9515 92.7015 12C92.7015 13.0545 92.3359 13.9455 91.6017 14.6715ZM86.837 14.0685C87.3908 14.607 88.0644 14.877 88.867 14.877C89.6635 14.877 90.3433 14.607 90.8908 14.0685C91.443 13.53 91.723 12.8385 91.723 12C91.723 11.1615 91.443 10.47 90.8908 9.93154C90.3433 9.39304 89.6635 9.12304 88.867 9.12304C88.0644 9.12304 87.3908 9.39304 86.837 9.93154C86.2848 10.47 86.0048 11.1615 86.0048 12C86.0048 12.8385 86.2848 13.53 86.837 14.0685Z" fill="white" stroke="white" stroke-width="0.16" stroke-miterlimit="10"/>
<path d="M94.0508 15.597V8.40302H95.2174L98.845 13.998H98.887L98.845 12.615V8.40302H99.8048V15.597H98.803L95.0043 9.72601H94.9623L95.0043 11.115V15.597H94.0508Z" fill="white" stroke="white" stroke-width="0.16" stroke-miterlimit="10"/>
<path d="M84.7905 26.103C81.8676 26.103 79.4798 28.248 79.4798 31.2075C79.4798 34.143 81.8676 36.3105 84.7905 36.3105C87.7196 36.3105 90.1074 34.143 90.1074 31.2075C90.1074 28.248 87.7196 26.103 84.7905 26.103ZM84.7905 34.3005C83.1867 34.3005 81.8069 33.024 81.8069 31.2075C81.8069 29.367 83.1867 28.113 84.7905 28.113C86.3943 28.113 87.7803 29.367 87.7803 31.2075C87.7803 33.024 86.3943 34.3005 84.7905 34.3005ZM73.2031 26.103C70.274 26.103 67.8925 28.248 67.8925 31.2075C67.8925 34.143 70.274 36.3105 73.2031 36.3105C76.1307 36.3105 78.5138 34.143 78.5138 31.2075C78.5138 28.248 76.1307 26.103 73.2031 26.103ZM73.2031 34.3005C71.5978 34.3005 70.2134 33.024 70.2134 31.2075C70.2134 29.367 71.5978 28.113 73.2031 28.113C74.8069 28.113 76.1867 29.367 76.1867 31.2075C76.1867 33.024 74.8069 34.3005 73.2031 34.3005ZM59.4147 27.6675V29.8365H64.786C64.6289 31.0485 64.2089 31.9395 63.5649 32.5605C62.7809 33.3105 61.5598 34.143 59.4147 34.143C56.1092 34.143 53.5207 31.5705 53.5207 28.383C53.5207 25.1955 56.1092 22.623 59.4147 22.623C61.202 22.623 62.5025 23.2965 63.4623 24.1695L65.0474 22.641C63.7049 21.405 61.9191 20.4555 59.4147 20.4555C54.8818 20.4555 51.0723 24.012 51.0723 28.383C51.0723 32.754 54.8818 36.3105 59.4147 36.3105C61.8647 36.3105 63.7049 35.5365 65.1516 34.0845C66.634 32.655 67.096 30.645 67.096 29.022C67.096 28.518 67.0525 28.0545 66.9747 27.6675H59.4147ZM115.797 29.349C115.36 28.2075 114.012 26.103 111.264 26.103C108.542 26.103 106.276 28.1715 106.276 31.2075C106.276 34.0665 108.519 36.3105 111.526 36.3105C113.957 36.3105 115.36 34.881 115.937 34.0485L114.133 32.889C113.531 33.738 112.711 34.3005 111.526 34.3005C110.348 34.3005 109.504 33.78 108.962 32.754L116.042 29.9295L115.797 29.349ZM108.58 31.0485C108.519 29.0805 110.165 28.0725 111.344 28.0725C112.268 28.0725 113.052 28.518 113.313 29.1555L108.58 31.0485ZM102.826 36H105.153V21H102.826V36ZM99.0145 27.24H98.9367C98.414 26.643 97.4169 26.103 96.1538 26.103C93.5031 26.103 91.0796 28.347 91.0796 31.224C91.0796 34.0845 93.5031 36.3105 96.1538 36.3105C97.4169 36.3105 98.414 35.766 98.9367 35.151H99.0145V35.883C99.0145 37.8345 97.9334 38.883 96.1896 38.883C94.7678 38.883 93.8858 37.893 93.5218 37.0605L91.498 37.875C92.0814 39.228 93.626 40.893 96.1896 40.893C98.918 40.893 101.22 39.345 101.22 35.5785V26.4135H99.0145V27.24ZM96.3529 34.3005C94.7491 34.3005 93.4067 33.006 93.4067 31.224C93.4067 29.4255 94.7491 28.113 96.3529 28.113C97.9334 28.113 99.1794 29.4255 99.1794 31.224C99.1794 33.006 97.9334 34.3005 96.3529 34.3005ZM126.692 21H121.127V36H123.448V30.3165H126.692C129.27 30.3165 131.798 28.518 131.798 25.6575C131.798 22.7985 129.264 21 126.692 21ZM126.753 28.23H123.448V23.0865H126.753C128.486 23.0865 129.475 24.474 129.475 25.6575C129.475 26.8185 128.486 28.23 126.753 28.23ZM141.1 26.0745C139.423 26.0745 137.679 26.7885 136.962 28.371L139.022 29.2035C139.465 28.371 140.28 28.101 141.142 28.101C142.346 28.101 143.567 28.7985 143.586 30.03V30.1875C143.166 29.9535 142.267 29.607 141.161 29.607C138.942 29.607 136.682 30.7845 136.682 32.982C136.682 34.992 138.499 36.2865 140.542 36.2865C142.103 36.2865 142.965 35.607 143.506 34.8165H143.586V35.976H145.827V30.222C145.827 27.5625 143.768 26.0745 141.1 26.0745ZM140.82 34.2945C140.061 34.2945 139.003 33.9315 139.003 33.024C139.003 31.863 140.322 31.4175 141.464 31.4175C142.486 31.4175 142.965 31.635 143.586 31.9215C143.404 33.3105 142.164 34.2945 140.82 34.2945ZM153.994 26.403L151.326 32.9055H151.247L148.489 26.403H145.986L150.13 35.49L147.766 40.5465H150.191L156.576 26.403H153.994ZM133.073 36H135.4V21H133.073V36Z" fill="white"/>
</svg>
