<svg width="24" height="24" viewBox="0 0 24 24" fill="none" xmlns="http://www.w3.org/2000/svg">
<path d="M22.1623 5.65599C21.3989 5.99368 20.5893 6.21546 19.7603 6.31399C20.634 5.79142 21.288 4.969 21.6003 3.99999C20.7803 4.48799 19.8813 4.82999 18.9443 5.01499C18.3149 4.34157 17.4807 3.89495 16.5713 3.74457C15.6618 3.59419 14.7282 3.74848 13.9156 4.18344C13.1029 4.6184 12.4567 5.30967 12.0774 6.14978C11.6981 6.98989 11.607 7.93177 11.8183 8.82899C10.1554 8.74564 8.52863 8.31351 7.04358 7.56065C5.55854 6.80779 4.24842 5.75104 3.1983 4.45899C2.82659 5.09744 2.63125 5.82321 2.6323 6.56199C2.6323 8.01199 3.3703 9.29299 4.4923 10.043C3.82831 10.0221 3.17893 9.84277 2.5983 9.51999V9.57199C2.5985 10.5377 2.93267 11.4736 3.54414 12.221C4.15562 12.9685 5.00678 13.4815 5.9533 13.673C5.33691 13.84 4.6906 13.8646 4.0633 13.745C4.33016 14.5762 4.8503 15.3032 5.55089 15.8241C6.25147 16.345 7.09742 16.6338 7.9703 16.65C7.10278 17.3313 6.10947 17.835 5.04718 18.1322C3.98488 18.4293 2.87442 18.5142 1.7793 18.382C3.69099 19.6114 5.91639 20.2641 8.1893 20.262C15.8823 20.262 20.0893 13.889 20.0893 8.36199C20.0893 8.18199 20.0843 7.99999 20.0763 7.82199C20.8952 7.23016 21.6019 6.49701 22.1633 5.65699L22.1623 5.65599Z" fill="#09121F"/>
</svg>
