<svg width="188" height="101" viewBox="0 0 188 101" fill="none" xmlns="http://www.w3.org/2000/svg">
<g filter="url(#filter0_d_122_5157)">
<circle cx="144" cy="40" r="40" fill="white"/>
</g>
<path d="M132.9 37.3044V52.2044C132.9 52.7349 133.111 53.2436 133.486 53.6187C133.861 53.9937 134.37 54.2044 134.9 54.2044H148.7C149.231 54.2044 149.74 53.9937 150.115 53.6187C150.49 53.2436 150.7 52.7349 150.7 52.2044V37.3044" fill="url(#paint0_linear_122_5157)"/>
<path d="M132.9 37.3044V52.2044C132.9 52.7349 133.111 53.2436 133.486 53.6187C133.861 53.9937 134.37 54.2044 134.9 54.2044H148.7C149.231 54.2044 149.74 53.9937 150.115 53.6187C150.49 53.2436 150.7 52.7349 150.7 52.2044V37.3044" stroke="black" stroke-width="2" stroke-linecap="round" stroke-linejoin="round"/>
<path d="M151.7 35.1044C151.7 35.4853 151.625 35.8624 151.479 36.2142C151.334 36.5661 151.12 36.8858 150.851 37.1551C150.581 37.4244 150.262 37.638 149.91 37.7837C149.558 37.9294 149.181 38.0044 148.8 38.0044H140.8V44.0044C140.8 44.5614 140.579 45.0955 140.185 45.4894C139.791 45.8832 139.257 46.1044 138.7 46.1044C138.143 46.1044 137.609 45.8832 137.215 45.4894C136.821 45.0955 136.6 44.5614 136.6 44.0044V38.0044H134.8C134.057 38.0044 133.345 37.7095 132.82 37.1844C132.295 36.6592 132 35.9471 132 35.2044C132 34.4618 132.295 33.7497 132.82 33.2245C133.345 32.6994 134.057 32.4045 134.8 32.4045C134.995 30.6521 135.826 29.0322 137.136 27.8518C138.445 26.6713 140.142 26.0125 141.906 26.0002C143.669 25.9878 145.375 26.6229 146.701 27.7849C148.027 28.9468 148.881 30.555 149.1 32.3044C149.807 32.3551 150.469 32.6723 150.952 33.192C151.434 33.7117 151.702 34.3952 151.7 35.1044Z" fill="white" stroke="black" stroke-width="2" stroke-linecap="round" stroke-linejoin="round"/>
<path d="M145.2 42.3044V50.6044" stroke="black" stroke-width="2" stroke-linecap="round" stroke-linejoin="round"/>
<path d="M138.7 49.3044V51.2044" stroke="black" stroke-width="2" stroke-linecap="round" stroke-linejoin="round"/>
<path d="M150.7 39.8044H153.8C154.171 39.8044 154.528 39.9519 154.79 40.2145C155.053 40.4771 155.2 40.8331 155.2 41.2044V47.5044C155.2 47.8758 155.053 48.2318 154.79 48.4944C154.528 48.7569 154.171 48.9044 153.8 48.9044H150.7V39.9044V39.8044Z" stroke="black" stroke-width="2" stroke-linecap="round" stroke-linejoin="round"/>
<defs>
<filter id="filter0_d_122_5157" x="100" y="0" width="88" height="88" filterUnits="userSpaceOnUse" color-interpolation-filters="sRGB">
<feFlood flood-opacity="0" result="BackgroundImageFix"/>
<feColorMatrix in="SourceAlpha" type="matrix" values="0 0 0 0 0 0 0 0 0 0 0 0 0 0 0 0 0 0 127 0" result="hardAlpha"/>
<feOffset dy="4"/>
<feGaussianBlur stdDeviation="2"/>
<feComposite in2="hardAlpha" operator="out"/>
<feColorMatrix type="matrix" values="0 0 0 0 0 0 0 0 0 0 0 0 0 0 0 0 0 0 0.25 0"/>
<feBlend mode="normal" in2="BackgroundImageFix" result="effect1_dropShadow_122_5157"/>
<feBlend mode="normal" in="SourceGraphic" in2="effect1_dropShadow_122_5157" result="shape"/>
</filter>
<linearGradient id="paint0_linear_122_5157" x1="150.7" y1="54.2044" x2="133.823" y2="36.4284" gradientUnits="userSpaceOnUse">
<stop stop-color="#FFD15C"/>
<stop offset="1" stop-color="#F3AF00"/>
</linearGradient>
</defs>
</svg>
