<svg width="24" height="24" viewBox="0 0 24 24" fill="none" xmlns="http://www.w3.org/2000/svg">
<path d="M6.94043 4.99999C6.94017 5.53043 6.7292 6.03903 6.35394 6.41391C5.97868 6.7888 5.46986 6.99926 4.93943 6.99899C4.409 6.99873 3.90039 6.78776 3.52551 6.4125C3.15062 6.03724 2.94016 5.52843 2.94043 4.99799C2.9407 4.46756 3.15166 3.95896 3.52692 3.58407C3.90218 3.20919 4.411 2.99873 4.94143 2.99899C5.47186 2.99926 5.98047 3.21023 6.35535 3.58549C6.73024 3.96075 6.9407 4.46956 6.94043 4.99999ZM7.00043 8.47999H3.00043V21H7.00043V8.47999ZM13.3204 8.47999H9.34043V21H13.2804V14.43C13.2804 10.77 18.0504 10.43 18.0504 14.43V21H22.0004V13.07C22.0004 6.89999 14.9404 7.12999 13.2804 10.16L13.3204 8.47999Z" fill="#09121F"/>
</svg>
