<svg width="50" height="50" viewBox="0 0 50 50" fill="none" xmlns="http://www.w3.org/2000/svg">
<g clip-path="url(#clip0_122_5181)">
<path d="M25.0003 4.16663C28.3155 4.16663 31.495 5.48359 33.8392 7.82779C36.1834 10.172 37.5003 13.3514 37.5003 16.6666V18.75H45.8337V22.9166H43.4024L41.8253 41.8395C41.782 42.3601 41.5446 42.8455 41.1603 43.1993C40.776 43.5531 40.2727 43.7497 39.7503 43.75H10.2503C9.72792 43.7497 9.22469 43.5531 8.84037 43.1993C8.45605 42.8455 8.21869 42.3601 8.17533 41.8395L6.59616 22.9166H4.16699V18.75H12.5003V16.6666C12.5003 13.3514 13.8173 10.172 16.1615 7.82779C18.5057 5.48359 21.6851 4.16663 25.0003 4.16663ZM27.0837 27.0833H22.917V35.4166H27.0837V27.0833ZM18.7503 27.0833H14.5837V35.4166H18.7503V27.0833ZM35.417 27.0833H31.2503V35.4166H35.417V27.0833ZM25.0003 8.33329C22.8623 8.33329 20.8061 9.15503 19.257 10.6286C17.7078 12.1021 16.7843 14.1146 16.6774 16.25L16.667 16.6666V18.75H33.3337V16.6666C33.3337 14.5286 32.5119 12.4724 31.0384 10.9233C29.5649 9.37414 27.5523 8.45061 25.417 8.34371L25.0003 8.33329Z" fill="#FBBC04"/>
</g>
<defs>
<clipPath id="clip0_122_5181">
<rect width="50" height="50" fill="white"/>
</clipPath>
</defs>
</svg>
