<svg width="50" height="50" viewBox="0 0 50 50" fill="none" xmlns="http://www.w3.org/2000/svg">
<g clip-path="url(#clip0_55_3356)">
<path d="M4.1665 41.6668H45.8332V45.8334H4.1665V41.6668ZM8.33317 25.0001H12.4998V39.5834H8.33317V25.0001ZM18.7498 25.0001H22.9165V39.5834H18.7498V25.0001ZM27.0832 25.0001H31.2498V39.5834H27.0832V25.0001ZM37.4998 25.0001H41.6665V39.5834H37.4998V25.0001ZM4.1665 14.5834L24.9998 4.16675L45.8332 14.5834V22.9167H4.1665V14.5834ZM24.9998 16.6667C25.5524 16.6667 26.0823 16.4473 26.473 16.0566C26.8637 15.6659 27.0832 15.136 27.0832 14.5834C27.0832 14.0309 26.8637 13.501 26.473 13.1103C26.0823 12.7196 25.5524 12.5001 24.9998 12.5001C24.4473 12.5001 23.9174 12.7196 23.5267 13.1103C23.136 13.501 22.9165 14.0309 22.9165 14.5834C22.9165 15.136 23.136 15.6659 23.5267 16.0566C23.9174 16.4473 24.4473 16.6667 24.9998 16.6667Z" fill="#4285F4"/>
</g>
<defs>
<clipPath id="clip0_55_3356">
<rect width="50" height="50" fill="white"/>
</clipPath>
</defs>
</svg>
