<svg width="50" height="50" viewBox="0 0 50 50" fill="none" xmlns="http://www.w3.org/2000/svg">
<g clip-path="url(#clip0_85_10020)">
<path d="M39.5832 45.8334H10.4165C8.7589 45.8334 7.16919 45.1749 5.99709 44.0028C4.82498 42.8307 4.1665 41.241 4.1665 39.5834V6.25008C4.1665 5.69755 4.386 5.16764 4.7767 4.77694C5.1674 4.38624 5.6973 4.16675 6.24984 4.16675H35.4165C35.969 4.16675 36.4989 4.38624 36.8896 4.77694C37.2803 5.16764 37.4998 5.69755 37.4998 6.25008V31.2501H45.8332V39.5834C45.8332 41.241 45.1747 42.8307 44.0026 44.0028C42.8305 45.1749 41.2408 45.8334 39.5832 45.8334ZM37.4998 35.4167V39.5834C37.4998 40.136 37.7193 40.6659 38.11 41.0566C38.5007 41.4473 39.0306 41.6668 39.5832 41.6668C40.1357 41.6668 40.6656 41.4473 41.0563 41.0566C41.447 40.6659 41.6665 40.136 41.6665 39.5834V35.4167H37.4998ZM33.3332 41.6668V8.33342H8.33317V39.5834C8.33317 40.136 8.55266 40.6659 8.94337 41.0566C9.33407 41.4473 9.86397 41.6668 10.4165 41.6668H33.3332ZM12.4998 14.5834H29.1665V18.7501H12.4998V14.5834ZM12.4998 22.9167H29.1665V27.0834H12.4998V22.9167ZM12.4998 31.2501H22.9165V35.4167H12.4998V31.2501Z" fill="#FBBC04"/>
</g>
<defs>
<clipPath id="clip0_85_10020">
<rect width="50" height="50" fill="white"/>
</clipPath>
</defs>
</svg>
