<svg width="50" height="50" viewBox="0 0 50 50" fill="none" xmlns="http://www.w3.org/2000/svg">
<path d="M24.9998 4.16663C28.315 4.16663 31.4945 5.48359 33.8387 7.82779C36.1829 10.172 37.4998 13.3514 37.4998 16.6666V18.75H45.8332V22.9166H43.4019L41.8248 41.8395C41.7815 42.3601 41.5441 42.8455 41.1598 43.1993C40.7755 43.5531 40.2722 43.7497 39.7498 43.75H10.2498C9.72743 43.7497 9.2242 43.5531 8.83988 43.1993C8.45556 42.8455 8.2182 42.3601 8.17484 41.8395L6.59567 22.9166H4.1665V18.75H12.4998V16.6666C12.4998 13.3514 13.8168 10.172 16.161 7.82779C18.5052 5.48359 21.6846 4.16663 24.9998 4.16663ZM27.0832 27.0833H22.9165V35.4166H27.0832V27.0833ZM18.7498 27.0833H14.5832V35.4166H18.7498V27.0833ZM35.4165 27.0833H31.2498V35.4166H35.4165V27.0833ZM24.9998 8.33329C22.8618 8.33329 20.8056 9.15503 19.2565 10.6286C17.7073 12.1021 16.7838 14.1146 16.6769 16.25L16.6665 16.6666V18.75H33.3332V16.6666C33.3332 14.5286 32.5114 12.4724 31.0379 10.9233C29.5644 9.37414 27.5518 8.45061 25.4165 8.34371L24.9998 8.33329Z" fill="#FBBC04"/>
</svg>
