<svg width="50" height="50" viewBox="0 0 50 50" fill="none" xmlns="http://www.w3.org/2000/svg">
<path d="M24.9856 0C11.1861 0 0 11.1925 0 25C0 38.8075 11.1861 50 24.9856 50C37.6783 50 48.3322 40.48 49.8164 27.97C49.9763 26.5975 48.9993 25.32 47.6276 25.155C46.2584 24.995 44.9792 25.9725 44.8192 27.345C43.6324 37.345 35.1398 45 24.9856 45C13.947 45 4.99713 36.045 4.99713 25C4.99713 13.955 13.947 5 24.9856 5C27.2918 5 29.5755 5.41749 31.7018 6.17249C33.001 6.63249 34.3628 5.90999 34.825 4.60999C35.2847 3.30749 34.6401 1.86753 33.3408 1.40503C30.6824 0.462529 27.8615 0 24.9856 0ZM47.4727 5C46.8331 5 46.1635 5.22501 45.6763 5.70251L23.8913 27.1875C23.2491 27.82 22.602 27.6975 22.0973 26.9525L19.5987 23.28C18.8342 22.1525 17.2301 21.825 16.0858 22.5775C14.9389 23.33 14.6166 24.8875 15.3812 26.015L17.8797 29.6875C20.1309 33.01 24.5359 33.45 27.4067 30.625L49.2692 9.21997C50.2436 8.25997 50.2436 6.66251 49.2692 5.70251C48.7819 5.22251 48.1123 5 47.4727 5Z" fill="#7DD339"/>
</svg>
